<mxfile host="app.diagrams.net" modified="2023-09-05T01:29:59.384Z" agent="Mozilla/5.0 (Windows NT 10.0; Win64; x64) AppleWebKit/537.36 (KHTML, like Gecko) Chrome/116.0.0.0 Safari/537.36" etag="CIrnjVkzhRkKpcdM1hd5" version="21.7.2" type="github">
  <diagram name="Page-1" id="2YBvvXClWsGukQMizWep">
    <mxGraphModel dx="1562" dy="553" grid="1" gridSize="10" guides="1" tooltips="1" connect="1" arrows="1" fold="1" page="1" pageScale="1" pageWidth="850" pageHeight="1100" math="0" shadow="0">
      <root>
        <mxCell id="0" />
        <mxCell id="1" parent="0" />
        <mxCell id="aM9ryv3xv72pqoxQDRHE-1" value=":Object" style="shape=umlLifeline;perimeter=lifelinePerimeter;whiteSpace=wrap;html=1;container=0;dropTarget=0;collapsible=0;recursiveResize=0;outlineConnect=0;portConstraint=eastwest;newEdgeStyle={&quot;edgeStyle&quot;:&quot;elbowEdgeStyle&quot;,&quot;elbow&quot;:&quot;vertical&quot;,&quot;curved&quot;:0,&quot;rounded&quot;:0};rounded=0;labelBackgroundColor=none;fillColor=#A8DADC;strokeColor=#457B9D;fontColor=#1D3557;" parent="1" vertex="1">
          <mxGeometry x="30" y="40" width="100" height="380" as="geometry" />
        </mxCell>
        <mxCell id="aM9ryv3xv72pqoxQDRHE-2" value="" style="html=1;points=[];perimeter=orthogonalPerimeter;outlineConnect=0;targetShapes=umlLifeline;portConstraint=eastwest;newEdgeStyle={&quot;edgeStyle&quot;:&quot;elbowEdgeStyle&quot;,&quot;elbow&quot;:&quot;vertical&quot;,&quot;curved&quot;:0,&quot;rounded&quot;:0};rounded=0;labelBackgroundColor=none;fillColor=#A8DADC;strokeColor=#457B9D;fontColor=#1D3557;" parent="aM9ryv3xv72pqoxQDRHE-1" vertex="1">
          <mxGeometry x="45" y="70" width="10" height="190" as="geometry" />
        </mxCell>
        <mxCell id="aM9ryv3xv72pqoxQDRHE-3" value="dispatch" style="html=1;verticalAlign=bottom;startArrow=oval;endArrow=block;startSize=8;edgeStyle=elbowEdgeStyle;elbow=vertical;curved=0;rounded=0;labelBackgroundColor=none;strokeColor=#457B9D;fontColor=default;fillColor=#A8DADC;" parent="aM9ryv3xv72pqoxQDRHE-1" target="aM9ryv3xv72pqoxQDRHE-2" edge="1">
          <mxGeometry relative="1" as="geometry">
            <mxPoint x="-15" y="70" as="sourcePoint" />
          </mxGeometry>
        </mxCell>
        <mxCell id="aM9ryv3xv72pqoxQDRHE-4" value="" style="html=1;points=[];perimeter=orthogonalPerimeter;outlineConnect=0;targetShapes=umlLifeline;portConstraint=eastwest;newEdgeStyle={&quot;edgeStyle&quot;:&quot;elbowEdgeStyle&quot;,&quot;elbow&quot;:&quot;vertical&quot;,&quot;curved&quot;:0,&quot;rounded&quot;:0};rounded=0;labelBackgroundColor=none;fillColor=#A8DADC;strokeColor=#457B9D;fontColor=#1D3557;" parent="aM9ryv3xv72pqoxQDRHE-1" vertex="1">
          <mxGeometry x="50" y="120" width="10" height="80" as="geometry" />
        </mxCell>
        <mxCell id="LEGEtlpXfrQTjN438k_L-16" value="" style="html=1;points=[[0,0,0,0,5],[0,1,0,0,-5],[1,0,0,0,5],[1,1,0,0,-5]];perimeter=orthogonalPerimeter;outlineConnect=0;targetShapes=umlLifeline;portConstraint=eastwest;newEdgeStyle={&quot;curved&quot;:0,&quot;rounded&quot;:0};strokeColor=#457B9D;fillColor=#A8DADC;labelBackgroundColor=none;fontColor=#1D3557;" vertex="1" parent="aM9ryv3xv72pqoxQDRHE-1">
          <mxGeometry x="45" y="280" width="10" height="80" as="geometry" />
        </mxCell>
        <mxCell id="aM9ryv3xv72pqoxQDRHE-5" value=":Object" style="shape=umlLifeline;perimeter=lifelinePerimeter;whiteSpace=wrap;html=1;container=0;dropTarget=0;collapsible=0;recursiveResize=0;outlineConnect=0;portConstraint=eastwest;newEdgeStyle={&quot;edgeStyle&quot;:&quot;elbowEdgeStyle&quot;,&quot;elbow&quot;:&quot;vertical&quot;,&quot;curved&quot;:0,&quot;rounded&quot;:0};rounded=0;labelBackgroundColor=none;fillColor=#A8DADC;strokeColor=#457B9D;fontColor=#1D3557;" parent="1" vertex="1">
          <mxGeometry x="220" y="40" width="100" height="490" as="geometry" />
        </mxCell>
        <mxCell id="aM9ryv3xv72pqoxQDRHE-6" value="" style="html=1;points=[];perimeter=orthogonalPerimeter;outlineConnect=0;targetShapes=umlLifeline;portConstraint=eastwest;newEdgeStyle={&quot;edgeStyle&quot;:&quot;elbowEdgeStyle&quot;,&quot;elbow&quot;:&quot;vertical&quot;,&quot;curved&quot;:0,&quot;rounded&quot;:0};rounded=0;labelBackgroundColor=none;fillColor=#A8DADC;strokeColor=#457B9D;fontColor=#1D3557;" parent="aM9ryv3xv72pqoxQDRHE-5" vertex="1">
          <mxGeometry x="45" y="80" width="10" height="170" as="geometry" />
        </mxCell>
        <mxCell id="aM9ryv3xv72pqoxQDRHE-7" value="dispatch" style="html=1;verticalAlign=bottom;endArrow=block;edgeStyle=elbowEdgeStyle;elbow=vertical;curved=0;rounded=0;labelBackgroundColor=none;strokeColor=#457B9D;fontColor=default;fillColor=#A8DADC;" parent="1" source="aM9ryv3xv72pqoxQDRHE-2" target="aM9ryv3xv72pqoxQDRHE-6" edge="1">
          <mxGeometry relative="1" as="geometry">
            <mxPoint x="195" y="130" as="sourcePoint" />
            <Array as="points">
              <mxPoint x="180" y="120" />
            </Array>
          </mxGeometry>
        </mxCell>
        <mxCell id="aM9ryv3xv72pqoxQDRHE-8" value="return" style="html=1;verticalAlign=bottom;endArrow=open;dashed=1;endSize=8;edgeStyle=elbowEdgeStyle;elbow=vertical;curved=0;rounded=0;labelBackgroundColor=none;strokeColor=#457B9D;fontColor=default;fillColor=#A8DADC;" parent="1" source="aM9ryv3xv72pqoxQDRHE-6" target="aM9ryv3xv72pqoxQDRHE-2" edge="1">
          <mxGeometry relative="1" as="geometry">
            <mxPoint x="195" y="205" as="targetPoint" />
            <Array as="points">
              <mxPoint x="190" y="280" />
            </Array>
          </mxGeometry>
        </mxCell>
        <mxCell id="aM9ryv3xv72pqoxQDRHE-9" value="callback" style="html=1;verticalAlign=bottom;endArrow=block;edgeStyle=elbowEdgeStyle;elbow=vertical;curved=0;rounded=0;labelBackgroundColor=none;strokeColor=#457B9D;fontColor=default;fillColor=#A8DADC;" parent="1" source="aM9ryv3xv72pqoxQDRHE-6" target="aM9ryv3xv72pqoxQDRHE-4" edge="1">
          <mxGeometry relative="1" as="geometry">
            <mxPoint x="175" y="160" as="sourcePoint" />
            <Array as="points">
              <mxPoint x="190" y="160" />
            </Array>
          </mxGeometry>
        </mxCell>
        <mxCell id="aM9ryv3xv72pqoxQDRHE-10" value="return" style="html=1;verticalAlign=bottom;endArrow=open;dashed=1;endSize=8;edgeStyle=elbowEdgeStyle;elbow=vertical;curved=0;rounded=0;labelBackgroundColor=none;strokeColor=#457B9D;fontColor=default;fillColor=#A8DADC;" parent="1" source="aM9ryv3xv72pqoxQDRHE-4" target="aM9ryv3xv72pqoxQDRHE-6" edge="1">
          <mxGeometry relative="1" as="geometry">
            <mxPoint x="175" y="235" as="targetPoint" />
            <Array as="points">
              <mxPoint x="180" y="230" />
            </Array>
          </mxGeometry>
        </mxCell>
        <mxCell id="LEGEtlpXfrQTjN438k_L-12" value=":Object" style="shape=umlLifeline;perimeter=lifelinePerimeter;whiteSpace=wrap;html=1;container=1;dropTarget=0;collapsible=0;recursiveResize=0;outlineConnect=0;portConstraint=eastwest;newEdgeStyle={&quot;curved&quot;:0,&quot;rounded&quot;:0};strokeColor=#457B9D;fontColor=#1D3557;fillColor=#A8DADC;labelBackgroundColor=none;" vertex="1" parent="1">
          <mxGeometry x="400" y="40" width="100" height="360" as="geometry" />
        </mxCell>
        <mxCell id="LEGEtlpXfrQTjN438k_L-13" value="" style="html=1;points=[[0,0,0,0,5],[0,1,0,0,-5],[1,0,0,0,5],[1,1,0,0,-5]];perimeter=orthogonalPerimeter;outlineConnect=0;targetShapes=umlLifeline;portConstraint=eastwest;newEdgeStyle={&quot;curved&quot;:0,&quot;rounded&quot;:0};strokeColor=#457B9D;fillColor=#A8DADC;labelBackgroundColor=none;fontColor=#1D3557;" vertex="1" parent="LEGEtlpXfrQTjN438k_L-12">
          <mxGeometry x="45" y="280" width="10" height="80" as="geometry" />
        </mxCell>
        <mxCell id="LEGEtlpXfrQTjN438k_L-17" value="" style="html=1;points=[[0,0,0,0,5],[0,1,0,0,-5],[1,0,0,0,5],[1,1,0,0,-5]];perimeter=orthogonalPerimeter;outlineConnect=0;targetShapes=umlLifeline;portConstraint=eastwest;newEdgeStyle={&quot;curved&quot;:0,&quot;rounded&quot;:0};strokeColor=#457B9D;fillColor=#A8DADC;labelBackgroundColor=none;fontColor=#1D3557;" vertex="1" parent="LEGEtlpXfrQTjN438k_L-12">
          <mxGeometry x="50" y="290" width="10" height="40" as="geometry" />
        </mxCell>
        <mxCell id="LEGEtlpXfrQTjN438k_L-18" value="self call" style="html=1;align=left;spacingLeft=2;endArrow=block;rounded=0;edgeStyle=orthogonalEdgeStyle;curved=0;rounded=0;strokeColor=#457B9D;fontColor=default;fillColor=#A8DADC;labelBackgroundColor=none;" edge="1" target="LEGEtlpXfrQTjN438k_L-17" parent="LEGEtlpXfrQTjN438k_L-12">
          <mxGeometry relative="1" as="geometry">
            <mxPoint x="55" y="290" as="sourcePoint" />
            <Array as="points">
              <mxPoint x="85" y="320" />
            </Array>
          </mxGeometry>
        </mxCell>
        <mxCell id="LEGEtlpXfrQTjN438k_L-14" value="大范甘迪负固不宾" style="html=1;verticalAlign=bottom;endArrow=block;curved=0;rounded=0;entryX=0;entryY=0;entryDx=0;entryDy=5;strokeColor=#457B9D;fontColor=default;fillColor=#A8DADC;exitX=1;exitY=0;exitDx=0;exitDy=5;exitPerimeter=0;labelBackgroundColor=none;" edge="1" target="LEGEtlpXfrQTjN438k_L-13" parent="1" source="LEGEtlpXfrQTjN438k_L-16">
          <mxGeometry relative="1" as="geometry">
            <mxPoint x="345" y="325" as="sourcePoint" />
          </mxGeometry>
        </mxCell>
        <mxCell id="LEGEtlpXfrQTjN438k_L-15" value="return" style="html=1;verticalAlign=bottom;endArrow=open;dashed=1;endSize=8;curved=0;rounded=0;exitX=0;exitY=1;exitDx=0;exitDy=-5;strokeColor=#457B9D;fontColor=default;fillColor=#A8DADC;labelBackgroundColor=none;entryX=1;entryY=1;entryDx=0;entryDy=-5;entryPerimeter=0;" edge="1" source="LEGEtlpXfrQTjN438k_L-13" parent="1" target="LEGEtlpXfrQTjN438k_L-16">
          <mxGeometry relative="1" as="geometry">
            <mxPoint x="375" y="395" as="targetPoint" />
          </mxGeometry>
        </mxCell>
      </root>
    </mxGraphModel>
  </diagram>
</mxfile>
